<?xml version="1.0" standalone="no"?>
<!DOCTYPE svg PUBLIC "-//W3C//DTD SVG 20010904//EN"
 "http://www.w3.org/TR/2001/REC-SVG-20010904/DTD/svg10.dtd">
<svg version="1.0" xmlns="http://www.w3.org/2000/svg"
 width="512.000000pt" height="512.000000pt" viewBox="0 0 512.000000 512.000000"
 preserveAspectRatio="xMidYMid meet">

<g transform="translate(0.000000,512.000000) scale(0.100000,-0.100000)"
fill="#0dcaf0" stroke="none">
<path d="M2380 4954 c-241 -27 -382 -56 -555 -111 -507 -163 -948 -491 -1244
-927 -207 -305 -337 -638 -398 -1018 -24 -157 -24 -517 1 -676 74 -472 259
-879 561 -1230 382 -445 916 -731 1515 -814 123 -17 478 -16 600 1 697 96
1288 457 1678 1024 206 299 339 639 398 1019 25 157 25 518 1 675 -82 521
-313 985 -671 1347 -369 374 -830 607 -1363 691 -93 15 -448 28 -523 19z m567
-1294 c46 -20 79 -64 89 -117 14 -74 6 -84 -455 -546 l-436 -437 437 -438
c240 -240 442 -450 448 -465 17 -47 12 -101 -13 -138 -48 -72 -126 -97 -200
-65 -18 8 -249 232 -539 522 -549 552 -530 529 -513 622 5 33 67 98 523 554
345 344 525 518 542 521 51 9 76 6 117 -13z"/>
</g>
</svg>
